<?xml version="1.0" encoding="UTF-8" standalone="no"?>
<!-- Created with Inkscape (http://www.inkscape.org/) -->

<svg
   xmlns:dc="http://purl.org/dc/elements/1.1/"
   xmlns:cc="http://creativecommons.org/ns#"
   xmlns:rdf="http://www.w3.org/1999/02/22-rdf-syntax-ns#"
   xmlns:svg="http://www.w3.org/2000/svg"
   xmlns="http://www.w3.org/2000/svg"
   xmlns:sodipodi="http://sodipodi.sourceforge.net/DTD/sodipodi-0.dtd"
   xmlns:inkscape="http://www.inkscape.org/namespaces/inkscape"
   width="678.43756"
   height="367.94016"
   id="svg2"
   version="1.1"
   inkscape:version="0.48.2 r9819"
   sodipodi:docname="calendar.svg">
  <defs
     id="defs4">
    <marker
       inkscape:stockid="Arrow2Lend"
       orient="auto"
       refY="0"
       refX="0"
       id="Arrow2Lend"
       style="overflow:visible">
      <path
         id="path3909"
         style="font-size:12px;fill-rule:evenodd;stroke-width:0.625;stroke-linejoin:round"
         d="M 8.7185878,4.0337352 -2.2072895,0.01601326 8.7185884,-4.0017078 c -1.7454984,2.3720609 -1.7354408,5.6174519 -6e-7,8.035443 z"
         transform="matrix(-1.1,0,0,-1.1,-1.1,0)"
         inkscape:connector-curvature="0" />
    </marker>
    <marker
       inkscape:stockid="Arrow2Lstart"
       orient="auto"
       refY="0"
       refX="0"
       id="Arrow2Lstart"
       style="overflow:visible">
      <path
         id="path3906"
         style="font-size:12px;fill-rule:evenodd;stroke-width:0.625;stroke-linejoin:round"
         d="M 8.7185878,4.0337352 -2.2072895,0.01601326 8.7185884,-4.0017078 c -1.7454984,2.3720609 -1.7354408,5.6174519 -6e-7,8.035443 z"
         transform="matrix(1.1,0,0,1.1,1.1,0)"
         inkscape:connector-curvature="0" />
    </marker>
  </defs>
  <sodipodi:namedview
     id="base"
     pagecolor="#ffffff"
     bordercolor="#666666"
     borderopacity="1.0"
     inkscape:pageopacity="0.0"
     inkscape:pageshadow="2"
     inkscape:zoom="1.2848993"
     inkscape:cx="404.94056"
     inkscape:cy="216.77882"
     inkscape:document-units="px"
     inkscape:current-layer="layer1"
     showgrid="false"
     fit-margin-top="0"
     fit-margin-left="0"
     fit-margin-right="0"
     fit-margin-bottom="0"
     inkscape:window-width="1511"
     inkscape:window-height="928"
     inkscape:window-x="1440"
     inkscape:window-y="0"
     inkscape:window-maximized="0" />
  <metadata
     id="metadata7">
    <rdf:RDF>
      <cc:Work
         rdf:about="">
        <dc:format>image/svg+xml</dc:format>
        <dc:type
           rdf:resource="http://purl.org/dc/dcmitype/StillImage" />
        <dc:title></dc:title>
      </cc:Work>
    </rdf:RDF>
  </metadata>
  <g
     inkscape:label="Layer 1"
     inkscape:groupmode="layer"
     id="layer1"
     transform="translate(-40.124941,-3.0598628)">
    <path
       style="fill:none;stroke:#5e6062;stroke-width:3.12726116;stroke-linecap:butt;stroke-linejoin:miter;stroke-miterlimit:4;stroke-opacity:1;stroke-dasharray:12.50904519, 3.1272613;stroke-dashoffset:0"
       d="m 121.90498,196.02327 c 201.16611,-4.54116 401.98028,7.41924 596.61701,0"
       id="path3082"
       inkscape:connector-curvature="0"
       sodipodi:nodetypes="cc" />
    <path
       sodipodi:type="arc"
       id="path2997"
       sodipodi:cx="94.701797"
       sodipodi:cy="134.89113"
       sodipodi:rx="4.7982244"
       sodipodi:ry="4.7982244"
       d="m 99.500022,134.89113 c 0,2.64998 -2.148238,4.79822 -4.798225,4.79822 -2.649986,0 -4.798224,-2.14824 -4.798224,-4.79822 0,-2.64999 2.148238,-4.79823 4.798224,-4.79823 2.649987,0 4.798225,2.14824 4.798225,4.79823 z"
       style="fill:#ffeb63;fill-opacity:1;stroke:#5e6062;stroke-opacity:1"
       transform="matrix(2.0779244,0,0,-2.0779244,-48.79776,476.62168)" />
    <path
       transform="matrix(2.0779244,0,0,-2.0779244,22.87623,476.62168)"
       style="fill:#ffeb63;fill-opacity:1;stroke:#5e6062;stroke-opacity:1"
       d="m 99.500022,134.89113 c 0,2.64998 -2.148238,4.79822 -4.798225,4.79822 -2.649986,0 -4.798224,-2.14824 -4.798224,-4.79822 0,-2.64999 2.148238,-4.79823 4.798224,-4.79823 2.649987,0 4.798225,2.14824 4.798225,4.79823 z"
       sodipodi:ry="4.7982244"
       sodipodi:rx="4.7982244"
       sodipodi:cy="134.89113"
       sodipodi:cx="94.701797"
       id="path3097"
       sodipodi:type="arc" />
    <path
       sodipodi:type="arc"
       id="path3099"
       sodipodi:cx="94.701797"
       sodipodi:cy="134.89113"
       sodipodi:rx="4.7982244"
       sodipodi:ry="4.7982244"
       d="m 99.500022,134.89113 c 0,2.64998 -2.148238,4.79822 -4.798225,4.79822 -2.649986,0 -4.798224,-2.14824 -4.798224,-4.79822 0,-2.64999 2.148238,-4.79823 4.798224,-4.79823 2.649987,0 4.798225,2.14824 4.798225,4.79823 z"
       style="fill:#ffeb63;fill-opacity:1;stroke:#5e6062;stroke-opacity:1"
       transform="matrix(2.0779244,0,0,-2.0779244,94.550221,476.62168)" />
    <path
       transform="matrix(2.0779244,0,0,-2.0779244,171.00248,476.62168)"
       style="fill:#00fe00;fill-opacity:1;stroke:#5e6062;stroke-opacity:1"
       d="m 99.500022,134.89113 c 0,2.64998 -2.148238,4.79822 -4.798225,4.79822 -2.649986,0 -4.798224,-2.14824 -4.798224,-4.79822 0,-2.64999 2.148238,-4.79823 4.798224,-4.79823 2.649987,0 4.798225,2.14824 4.798225,4.79823 z"
       sodipodi:ry="4.7982244"
       sodipodi:rx="4.7982244"
       sodipodi:cy="134.89113"
       sodipodi:cx="94.701797"
       id="path3101"
       sodipodi:type="arc" />
    <path
       style="fill:none;stroke:#000000;stroke-width:2.66929054;stroke-linecap:butt;stroke-linejoin:miter;stroke-miterlimit:4;stroke-opacity:1;stroke-dasharray:none;marker-start:none;marker-end:url(#Arrow2Lend)"
       d="m 368.74994,123.3446 0,52.22535"
       id="path3113"
       inkscape:connector-curvature="0" />
    <path
       inkscape:connector-curvature="0"
       id="path4712"
       d="m 145.92477,266.90126 0,-52.22535"
       style="fill:#2b0000;stroke:#2b0000;stroke-width:2.66929054;stroke-linecap:butt;stroke-linejoin:miter;stroke-miterlimit:4;stroke-opacity:1;stroke-dasharray:none;marker-start:none;marker-end:url(#Arrow2Lend)" />
    <path
       style="fill:#2b0000;stroke:#2b0000;stroke-width:2.66929054;stroke-linecap:butt;stroke-linejoin:miter;stroke-miterlimit:4;stroke-opacity:1;stroke-dasharray:none;marker-start:none;marker-end:url(#Arrow2Lend)"
       d="m 217.59877,266.90126 0,-52.22535"
       id="path4714"
       inkscape:connector-curvature="0" />
    <path
       inkscape:connector-curvature="0"
       id="path4716"
       d="m 289.27276,266.90126 0,-52.22535"
       style="fill:#2b0000;stroke:#2b0000;stroke-width:2.66929054;stroke-linecap:butt;stroke-linejoin:miter;stroke-miterlimit:4;stroke-opacity:1;stroke-dasharray:none;marker-start:none;marker-end:url(#Arrow2Lend)" />
    <path
       transform="matrix(2.0779244,0,0,-2.0779244,247.45473,476.62168)"
       style="fill:#ffeb63;fill-opacity:1;stroke:#5e6062;stroke-opacity:1"
       d="m 99.500022,134.89113 c 0,2.64998 -2.148238,4.79822 -4.798225,4.79822 -2.649986,0 -4.798224,-2.14824 -4.798224,-4.79822 0,-2.64999 2.148238,-4.79823 4.798224,-4.79823 2.649987,0 4.798225,2.14824 4.798225,4.79823 z"
       sodipodi:ry="4.7982244"
       sodipodi:rx="4.7982244"
       sodipodi:cy="134.89113"
       sodipodi:cx="94.701797"
       id="path4718"
       sodipodi:type="arc" />
    <path
       sodipodi:type="arc"
       id="path4720"
       sodipodi:cx="94.701797"
       sodipodi:cy="134.89113"
       sodipodi:rx="4.7982244"
       sodipodi:ry="4.7982244"
       d="m 99.500022,134.89113 c 0,2.64998 -2.148238,4.79822 -4.798225,4.79822 -2.649986,0 -4.798224,-2.14824 -4.798224,-4.79822 0,-2.64999 2.148238,-4.79823 4.798224,-4.79823 2.649987,0 4.798225,2.14824 4.798225,4.79823 z"
       style="fill:#ffeb63;fill-opacity:1;stroke:#5e6062;stroke-opacity:1"
       transform="matrix(2.0779244,0,0,-2.0779244,319.12873,476.62168)" />
    <path
       transform="matrix(2.0779244,0,0,-2.0779244,390.80272,476.62168)"
       style="fill:#ffeb63;fill-opacity:1;stroke:#5e6062;stroke-opacity:1"
       d="m 99.500022,134.89113 c 0,2.64998 -2.148238,4.79822 -4.798225,4.79822 -2.649986,0 -4.798224,-2.14824 -4.798224,-4.79822 0,-2.64999 2.148238,-4.79823 4.798224,-4.79823 2.649987,0 4.798225,2.14824 4.798225,4.79823 z"
       sodipodi:ry="4.7982244"
       sodipodi:rx="4.7982244"
       sodipodi:cy="134.89113"
       sodipodi:cx="94.701797"
       id="path4722"
       sodipodi:type="arc" />
    <path
       sodipodi:type="arc"
       id="path4724"
       sodipodi:cx="94.701797"
       sodipodi:cy="134.89113"
       sodipodi:rx="4.7982244"
       sodipodi:ry="4.7982244"
       d="m 99.500022,134.89113 c 0,2.64998 -2.148238,4.79822 -4.798225,4.79822 -2.649986,0 -4.798224,-2.14824 -4.798224,-4.79822 0,-2.64999 2.148238,-4.79823 4.798224,-4.79823 2.649987,0 4.798225,2.14824 4.798225,4.79823 z"
       style="fill:#00fe00;fill-opacity:1;stroke:#5e6062;stroke-opacity:1"
       transform="matrix(2.0779244,0,0,-2.0779244,457.69844,476.62168)" />
    <path
       inkscape:connector-curvature="0"
       id="path4726"
       d="m 655.44593,123.3446 0,52.22535"
       style="fill:none;stroke:#000000;stroke-width:2.66929054;stroke-linecap:butt;stroke-linejoin:miter;stroke-miterlimit:4;stroke-opacity:1;stroke-dasharray:none;marker-start:none;marker-end:url(#Arrow2Lend)" />
    <path
       style="fill:none;stroke:#000000;stroke-width:2.66929054;stroke-linecap:butt;stroke-linejoin:miter;stroke-miterlimit:4;stroke-opacity:1;stroke-dasharray:none;marker-start:none;marker-end:url(#Arrow2Lend)"
       d="m 442.17729,266.90126 0,-52.22535"
       id="path4728"
       inkscape:connector-curvature="0" />
    <path
       inkscape:connector-curvature="0"
       id="path4730"
       d="m 513.85125,266.90126 0,-52.22535"
       style="fill:none;stroke:#000000;stroke-width:2.66929054;stroke-linecap:butt;stroke-linejoin:miter;stroke-miterlimit:4;stroke-opacity:1;stroke-dasharray:none;marker-start:none;marker-end:url(#Arrow2Lend)" />
    <path
       style="fill:none;stroke:#000000;stroke-width:2.66929054;stroke-linecap:butt;stroke-linejoin:miter;stroke-miterlimit:4;stroke-opacity:1;stroke-dasharray:none;marker-start:none;marker-end:url(#Arrow2Lend)"
       d="m 585.52525,266.90126 0,-52.22535"
       id="path4732"
       inkscape:connector-curvature="0" />
    <text
       xml:space="preserve"
       style="font-size:28.66959763px;font-style:normal;font-variant:normal;font-weight:normal;font-stretch:normal;text-align:center;line-height:125%;letter-spacing:0px;word-spacing:0px;writing-mode:lr-tb;text-anchor:middle;fill:#000000;fill-opacity:1;stroke:none;font-family:Sans;-inkscape-font-specification:Sans"
       x="517.24182"
       y="37.741673"
       id="text4734"
       sodipodi:linespacing="125%"><tspan
         sodipodi:role="line"
         id="tspan4736"
         x="517.24182"
         y="37.741673">Bi-annual global hack</tspan><tspan
         sodipodi:role="line"
         x="517.24182"
         y="73.578667"
         id="tspan4738">weekends in</tspan><tspan
         sodipodi:role="line"
         x="517.24182"
         y="109.41566"
         id="tspan4740">June and December</tspan></text>
    <text
       sodipodi:linespacing="125%"
       id="text4742"
       y="301.31219"
       x="358.82532"
       style="font-size:28.66959763px;font-style:normal;font-variant:normal;font-weight:normal;font-stretch:normal;text-align:center;line-height:125%;letter-spacing:0px;word-spacing:0px;writing-mode:lr-tb;text-anchor:middle;fill:#000000;fill-opacity:1;stroke:none;font-family:Sans;-inkscape-font-specification:Sans"
       xml:space="preserve"><tspan
         id="tspan4748"
         y="301.31219"
         x="358.82532"
         sodipodi:role="line">'RHoK and RHoll' meetups every 6 weeks to</tspan><tspan
         y="337.1492"
         x="358.82532"
         sodipodi:role="line"
         id="tspan4754">continue work on projects</tspan></text>
    <rect
       style="fill:none;stroke:#5e6062;stroke-width:1.48367763;stroke-linejoin:round;stroke-miterlimit:4;stroke-opacity:1;stroke-dasharray:none"
       id="rect4777"
       width="355.76328"
       height="117.27721"
       x="333.82434"
       y="3.7902417" />
    <rect
       y="266.53186"
       x="41.045738"
       height="103.53804"
       width="640.48529"
       id="rect4801"
       style="fill:none;stroke:#5e6062;stroke-width:1.86999655;stroke-linejoin:round;stroke-opacity:1" />
  </g>
</svg>
